<svg width="62" height="63" viewBox="0 0 62 63" fill="none" xmlns="http://www.w3.org/2000/svg">
<g clip-path="url(#clip0_6_434)">
<path d="M45.1051 3.34094H16.8947C9.10466 3.34094 2.78955 9.64457 2.78955 17.4205V45.5796C2.78955 53.3555 9.10466 59.6591 16.8947 59.6591H45.1051C52.8952 59.6591 59.2103 53.3555 59.2103 45.5796V17.4205C59.2103 9.64457 52.8952 3.34094 45.1051 3.34094Z" stroke="white" stroke-opacity="0.9" stroke-width="5.07787" stroke-linecap="round" stroke-linejoin="round"/>
<path d="M42.2842 29.726C42.6323 32.0695 42.2313 34.4629 41.1381 36.5658C40.045 38.6688 38.3154 40.3741 36.1953 41.4392C34.0752 42.5044 31.6727 42.8751 29.3293 42.4987C26.986 42.1223 24.8213 41.018 23.143 39.3427C21.4647 37.6675 20.3583 35.5067 19.9812 33.1676C19.6041 30.8285 19.9756 28.4303 21.0427 26.3141C22.1097 24.1979 23.8182 22.4714 25.9249 21.3803C28.0317 20.2891 30.4295 19.8888 32.7773 20.2363C35.1721 20.5908 37.3892 21.7047 39.1012 23.4136C40.8131 25.1224 41.929 27.3355 42.2842 29.726Z" stroke="white" stroke-opacity="0.9" stroke-width="5.07787" stroke-linecap="round" stroke-linejoin="round"/>
<path d="M46.5161 16.0125H46.5441" stroke="white" stroke-opacity="0.9" stroke-width="5.07787" stroke-linecap="round" stroke-linejoin="round"/>
</g>
<defs>
<clipPath id="clip0_6_434">
<rect width="61.9672" height="63" fill="white" transform="translate(0.0166016)"/>
</clipPath>
</defs>
</svg>
