<svg width="59" height="59" viewBox="0 0 59 59" fill="none" xmlns="http://www.w3.org/2000/svg">
<path d="M41.7917 4.91666H17.2084C10.4199 4.91666 4.91669 10.4198 4.91669 17.2083V41.7917C4.91669 48.5802 10.4199 54.0833 17.2084 54.0833H41.7917C48.5802 54.0833 54.0834 48.5802 54.0834 41.7917V17.2083C54.0834 10.4198 48.5802 4.91666 41.7917 4.91666Z" stroke="#020202" stroke-opacity="0.9" stroke-width="4.91667" stroke-linecap="round" stroke-linejoin="round"/>
<path d="M39.3332 27.9512C39.6366 29.9972 39.2871 32.0867 38.3345 33.9226C37.3819 35.7584 35.8747 37.2472 34.0272 38.1771C32.1797 39.107 30.0861 39.4307 28.044 39.1021C26.002 38.7735 24.1155 37.8093 22.653 36.3468C21.1905 34.8843 20.2264 32.9979 19.8978 30.9558C19.5692 28.9138 19.8929 26.8201 20.8228 24.9726C21.7526 23.1252 23.2414 21.6179 25.0773 20.6653C26.9132 19.7127 29.0027 19.3633 31.0486 19.6666C33.1356 19.9761 35.0676 20.9486 36.5595 22.4404C38.0513 23.9322 39.0237 25.8643 39.3332 27.9512Z" stroke="#020202" stroke-opacity="0.9" stroke-width="4.91667" stroke-linecap="round" stroke-linejoin="round"/>
<path d="M43.0209 15.9792H43.0452" stroke="#020202" stroke-opacity="0.9" stroke-width="4.91667" stroke-linecap="round" stroke-linejoin="round"/>
</svg>
